{
  "asset": {
    "version": "2.0",
    "generator": "NeoEng-D-Trace reference asset generator 0.1.0",
    "extras": {
      "neoeng_asset_name": "Eclipse Warden",
      "neoeng_original_procedural_geometry": true,
      "neoeng_target_engine": "Unity"
    }
  },
  "scene": 0,
  "scenes": [
    {
      "name": "EclipseWarden_Scene",
      "nodes": [
        0
      ]
    }
  ],
  "nodes": [
    {
      "name": "EclipseWarden_Asset",
      "children": [
        1,
        19,
        20,
        21,
        22,
        23,
        24,
        25,
        26,
        27,
        28,
        29,
        30,
        31,
        32,
        33,
        34,
        35,
        36,
        37,
        38,
        39,
        40,
        41
      ]
    },
    {
      "name": "root",
      "translation": [
        0.0,
        0.0,
        0.0
      ],
      "children": [
        2
      ]
    },
    {
      "name": "pelvis",
      "translation": [
        0.0,
        2.05,
        0.0
      ],
      "children": [
        3,
        13,
        16
      ]
    },
    {
      "name": "spine",
      "translation": [
        0.0,
        0.62,
        0.0
      ],
      "children": [
        4
      ]
    },
    {
      "name": "chest",
      "translation": [
        0.0,
        0.64,
        0.0
      ],
      "children": [
        5,
        7,
        10
      ]
    },
    {
      "name": "neck",
      "translation": [
        0.0,
        0.64,
        0.0
      ],
      "children": [
        6
      ]
    },
    {
      "name": "head",
      "translation": [
        0.0,
        0.34,
        0.0
      ],
      "children": []
    },
    {
      "name": "upper_arm_l",
      "translation": [
        -0.58,
        0.29,
        0.0
      ],
      "children": [
        8
      ]
    },
    {
      "name": "lower_arm_l",
      "translation": [
        -0.42,
        -0.56,
        0.0
      ],
      "children": [
        9
      ]
    },
    {
      "name": "hand_l",
      "translation": [
        -0.1,
        -0.44,
        0.0
      ],
      "children": []
    },
    {
      "name": "upper_arm_r",
      "translation": [
        0.58,
        0.29,
        0.0
      ],
      "children": [
        11
      ]
    },
    {
      "name": "lower_arm_r",
      "translation": [
        0.42,
        -0.56,
        0.0
      ],
      "children": [
        12
      ]
    },
    {
      "name": "hand_r",
      "translation": [
        0.1,
        -0.44,
        0.0
      ],
      "children": []
    },
    {
      "name": "upper_leg_l",
      "translation": [
        -0.29,
        -0.5,
        0.0
      ],
      "children": [
        14
      ]
    },
    {
      "name": "lower_leg_l",
      "translation": [
        0.0,
        -0.91,
        0.0
      ],
      "children": [
        15
      ]
    },
    {
      "name": "foot_l",
      "translation": [
        0.0,
        -0.55,
        0.2
      ],
      "children": []
    },
    {
      "name": "upper_leg_r",
      "translation": [
        0.29,
        -0.5,
        0.0
      ],
      "children": [
        17
      ]
    },
    {
      "name": "lower_leg_r",
      "translation": [
        0.0,
        -0.91,
        0.0
      ],
      "children": [
        18
      ]
    },
    {
      "name": "foot_r",
      "translation": [
        0.0,
        -0.55,
        0.2
      ],
      "children": []
    },
    {
      "name": "Torso_Armor",
      "mesh": 0,
      "skin": 0,
      "extras": {
        "neoeng_component": true,
        "neoeng_material": "Armor_Metal"
      }
    },
    {
      "name": "Hood",
      "mesh": 1,
      "skin": 0,
      "extras": {
        "neoeng_component": true,
        "neoeng_material": "Cloth_Cape"
      }
    },
    {
      "name": "Face_Plate",
      "mesh": 2,
      "skin": 0,
      "extras": {
        "neoeng_component": true,
        "neoeng_material": "Armor_Metal"
      }
    },
    {
      "name": "Shoulder_L",
      "mesh": 3,
      "skin": 0,
      "extras": {
        "neoeng_component": true,
        "neoeng_material": "Armor_Metal"
      }
    },
    {
      "name": "UpperArm_Armor_L",
      "mesh": 4,
      "skin": 0,
      "extras": {
        "neoeng_component": true,
        "neoeng_material": "Armor_Metal"
      }
    },
    {
      "name": "Gauntlet_L",
      "mesh": 5,
      "skin": 0,
      "extras": {
        "neoeng_component": true,
        "neoeng_material": "Armor_Metal"
      }
    },
    {
      "name": "Shoulder_R",
      "mesh": 6,
      "skin": 0,
      "extras": {
        "neoeng_component": true,
        "neoeng_material": "Armor_Metal"
      }
    },
    {
      "name": "UpperArm_Armor_R",
      "mesh": 7,
      "skin": 0,
      "extras": {
        "neoeng_component": true,
        "neoeng_material": "Armor_Metal"
      }
    },
    {
      "name": "Gauntlet_R",
      "mesh": 8,
      "skin": 0,
      "extras": {
        "neoeng_component": true,
        "neoeng_material": "Armor_Metal"
      }
    },
    {
      "name": "Belt",
      "mesh": 9,
      "skin": 0,
      "extras": {
        "neoeng_component": true,
        "neoeng_material": "Leather_Belts"
      }
    },
    {
      "name": "Cloth_Skirt_Front",
      "mesh": 10,
      "skin": 0,
      "extras": {
        "neoeng_component": true,
        "neoeng_material": "Cloth_Cape"
      }
    },
    {
      "name": "Cloth_Skirt_L",
      "mesh": 11,
      "skin": 0,
      "extras": {
        "neoeng_component": true,
        "neoeng_material": "Cloth_Cape"
      }
    },
    {
      "name": "Thigh_Armor_L",
      "mesh": 12,
      "skin": 0,
      "extras": {
        "neoeng_component": true,
        "neoeng_material": "Armor_Metal"
      }
    },
    {
      "name": "Boot_L",
      "mesh": 13,
      "skin": 0,
      "extras": {
        "neoeng_component": true,
        "neoeng_material": "Leather_Boots"
      }
    },
    {
      "name": "Cloth_Skirt_R",
      "mesh": 14,
      "skin": 0,
      "extras": {
        "neoeng_component": true,
        "neoeng_material": "Cloth_Cape"
      }
    },
    {
      "name": "Thigh_Armor_R",
      "mesh": 15,
      "skin": 0,
      "extras": {
        "neoeng_component": true,
        "neoeng_material": "Armor_Metal"
      }
    },
    {
      "name": "Boot_R",
      "mesh": 16,
      "skin": 0,
      "extras": {
        "neoeng_component": true,
        "neoeng_material": "Leather_Boots"
      }
    },
    {
      "name": "Cape_Center",
      "mesh": 17,
      "skin": 0,
      "extras": {
        "neoeng_component": true,
        "neoeng_material": "Cloth_Cape"
      }
    },
    {
      "name": "Cape_L",
      "mesh": 18,
      "skin": 0,
      "extras": {
        "neoeng_component": true,
        "neoeng_material": "Cloth_Cape"
      }
    },
    {
      "name": "Cape_R",
      "mesh": 19,
      "skin": 0,
      "extras": {
        "neoeng_component": true,
        "neoeng_material": "Cloth_Cape"
      }
    },
    {
      "name": "Sword_Blade",
      "mesh": 20,
      "skin": 0,
      "extras": {
        "neoeng_component": true,
        "neoeng_material": "Armor_Metal"
      }
    },
    {
      "name": "Sword_Hilt",
      "mesh": 21,
      "skin": 0,
      "extras": {
        "neoeng_component": true,
        "neoeng_material": "Leather_Belts"
      }
    },
    {
      "name": "Energy_Rune",
      "mesh": 22,
      "skin": 0,
      "extras": {
        "neoeng_component": true,
        "neoeng_material": "Energy_Rune"
      }
    }
  ],
  "meshes": [
    {
      "name": "Torso_Armor",
      "primitives": [
        {
          "attributes": {
            "POSITION": 0,
            "NORMAL": 1,
            "TEXCOORD_0": 2,
            "JOINTS_0": 3,
            "WEIGHTS_0": 4
          },
          "indices": 5,
          "material": 0,
          "mode": 4
        }
      ]
    },
    {
      "name": "Hood",
      "primitives": [
        {
          "attributes": {
            "POSITION": 6,
            "NORMAL": 7,
            "TEXCOORD_0": 8,
            "JOINTS_0": 9,
            "WEIGHTS_0": 10
          },
          "indices": 11,
          "material": 1,
          "mode": 4
        }
      ]
    },
    {
      "name": "Face_Plate",
      "primitives": [
        {
          "attributes": {
            "POSITION": 12,
            "NORMAL": 13,
            "TEXCOORD_0": 14,
            "JOINTS_0": 15,
            "WEIGHTS_0": 16
          },
          "indices": 17,
          "material": 0,
          "mode": 4
        }
      ]
    },
    {
      "name": "Shoulder_L",
      "primitives": [
        {
          "attributes": {
            "POSITION": 18,
            "NORMAL": 19,
            "TEXCOORD_0": 20,
            "JOINTS_0": 21,
            "WEIGHTS_0": 22
          },
          "indices": 23,
          "material": 0,
          "mode": 4
        }
      ]
    },
    {
      "name": "UpperArm_Armor_L",
      "primitives": [
        {
          "attributes": {
            "POSITION": 24,
            "NORMAL": 25,
            "TEXCOORD_0": 26,
            "JOINTS_0": 27,
            "WEIGHTS_0": 28
          },
          "indices": 29,
          "material": 0,
          "mode": 4
        }
      ]
    },
    {
      "name": "Gauntlet_L",
      "primitives": [
        {
          "attributes": {
            "POSITION": 30,
            "NORMAL": 31,
            "TEXCOORD_0": 32,
            "JOINTS_0": 33,
            "WEIGHTS_0": 34
          },
          "indices": 35,
          "material": 0,
          "mode": 4
        }
      ]
    },
    {
      "name": "Shoulder_R",
      "primitives": [
        {
          "attributes": {
            "POSITION": 36,
            "NORMAL": 37,
            "TEXCOORD_0": 38,
            "JOINTS_0": 39,
            "WEIGHTS_0": 40
          },
          "indices": 41,
          "material": 0,
          "mode": 4
        }
      ]
    },
    {
      "name": "UpperArm_Armor_R",
      "primitives": [
        {
          "attributes": {
            "POSITION": 42,
            "NORMAL": 43,
            "TEXCOORD_0": 44,
            "JOINTS_0": 45,
            "WEIGHTS_0": 46
          },
          "indices": 47,
          "material": 0,
          "mode": 4
        }
      ]
    },
    {
      "name": "Gauntlet_R",
      "primitives": [
        {
          "attributes": {
            "POSITION": 48,
            "NORMAL": 49,
            "TEXCOORD_0": 50,
            "JOINTS_0": 51,
            "WEIGHTS_0": 52
          },
          "indices": 53,
          "material": 0,
          "mode": 4
        }
      ]
    },
    {
      "name": "Belt",
      "primitives": [
        {
          "attributes": {
            "POSITION": 54,
            "NORMAL": 55,
            "TEXCOORD_0": 56,
            "JOINTS_0": 57,
            "WEIGHTS_0": 58
          },
          "indices": 59,
          "material": 2,
          "mode": 4
        }
      ]
    },
    {
      "name": "Cloth_Skirt_Front",
      "primitives": [
        {
          "attributes": {
            "POSITION": 60,
            "NORMAL": 61,
            "TEXCOORD_0": 62,
            "JOINTS_0": 63,
            "WEIGHTS_0": 64
          },
          "indices": 65,
          "material": 1,
          "mode": 4
        }
      ]
    },
    {
      "name": "Cloth_Skirt_L",
      "primitives": [
        {
          "attributes": {
            "POSITION": 66,
            "NORMAL": 67,
            "TEXCOORD_0": 68,
            "JOINTS_0": 69,
            "WEIGHTS_0": 70
          },
          "indices": 71,
          "material": 1,
          "mode": 4
        }
      ]
    },
    {
      "name": "Thigh_Armor_L",
      "primitives": [
        {
          "attributes": {
            "POSITION": 72,
            "NORMAL": 73,
            "TEXCOORD_0": 74,
            "JOINTS_0": 75,
            "WEIGHTS_0": 76
          },
          "indices": 77,
          "material": 0,
          "mode": 4
        }
      ]
    },
    {
      "name": "Boot_L",
      "primitives": [
        {
          "attributes": {
            "POSITION": 78,
            "NORMAL": 79,
            "TEXCOORD_0": 80,
            "JOINTS_0": 81,
            "WEIGHTS_0": 82
          },
          "indices": 83,
          "material": 3,
          "mode": 4
        }
      ]
    },
    {
      "name": "Cloth_Skirt_R",
      "primitives": [
        {
          "attributes": {
            "POSITION": 84,
            "NORMAL": 85,
            "TEXCOORD_0": 86,
            "JOINTS_0": 87,
            "WEIGHTS_0": 88
          },
          "indices": 89,
          "material": 1,
          "mode": 4
        }
      ]
    },
    {
      "name": "Thigh_Armor_R",
      "primitives": [
        {
          "attributes": {
            "POSITION": 90,
            "NORMAL": 91,
            "TEXCOORD_0": 92,
            "JOINTS_0": 93,
            "WEIGHTS_0": 94
          },
          "indices": 95,
          "material": 0,
          "mode": 4
        }
      ]
    },
    {
      "name": "Boot_R",
      "primitives": [
        {
          "attributes": {
            "POSITION": 96,
            "NORMAL": 97,
            "TEXCOORD_0": 98,
            "JOINTS_0": 99,
            "WEIGHTS_0": 100
          },
          "indices": 101,
          "material": 3,
          "mode": 4
        }
      ]
    },
    {
      "name": "Cape_Center",
      "primitives": [
        {
          "attributes": {
            "POSITION": 102,
            "NORMAL": 103,
            "TEXCOORD_0": 104,
            "JOINTS_0": 105,
            "WEIGHTS_0": 106
          },
          "indices": 107,
          "material": 1,
          "mode": 4
        }
      ]
    },
    {
      "name": "Cape_L",
      "primitives": [
        {
          "attributes": {
            "POSITION": 108,
            "NORMAL": 109,
            "TEXCOORD_0": 110,
            "JOINTS_0": 111,
            "WEIGHTS_0": 112
          },
          "indices": 113,
          "material": 1,
          "mode": 4
        }
      ]
    },
    {
      "name": "Cape_R",
      "primitives": [
        {
          "attributes": {
            "POSITION": 114,
            "NORMAL": 115,
            "TEXCOORD_0": 116,
            "JOINTS_0": 117,
            "WEIGHTS_0": 118
          },
          "indices": 119,
          "material": 1,
          "mode": 4
        }
      ]
    },
    {
      "name": "Sword_Blade",
      "primitives": [
        {
          "attributes": {
            "POSITION": 120,
            "NORMAL": 121,
            "TEXCOORD_0": 122,
            "JOINTS_0": 123,
            "WEIGHTS_0": 124
          },
          "indices": 125,
          "material": 0,
          "mode": 4
        }
      ]
    },
    {
      "name": "Sword_Hilt",
      "primitives": [
        {
          "attributes": {
            "POSITION": 126,
            "NORMAL": 127,
            "TEXCOORD_0": 128,
            "JOINTS_0": 129,
            "WEIGHTS_0": 130
          },
          "indices": 131,
          "material": 2,
          "mode": 4
        }
      ]
    },
    {
      "name": "Energy_Rune",
      "primitives": [
        {
          "attributes": {
            "POSITION": 132,
            "NORMAL": 133,
            "TEXCOORD_0": 134,
            "JOINTS_0": 135,
            "WEIGHTS_0": 136
          },
          "indices": 137,
          "material": 4,
          "mode": 4
        }
      ]
    }
  ],
  "materials": [
    {
      "name": "Armor_Metal",
      "doubleSided": true,
      "pbrMetallicRoughness": {
        "baseColorTexture": {
          "index": 0
        },
        "metallicRoughnessTexture": {
          "index": 1
        },
        "metallicFactor": 0.86,
        "roughnessFactor": 0.42
      },
      "normalTexture": {
        "index": 2,
        "scale": 0.72
      },
      "extras": {
        "neoeng_role": "armor",
        "source": "procedural_original"
      }
    },
    {
      "name": "Cloth_Cape",
      "doubleSided": true,
      "pbrMetallicRoughness": {
        "baseColorTexture": {
          "index": 3
        },
        "metallicRoughnessTexture": {
          "index": 4
        },
        "metallicFactor": 0.05,
        "roughnessFactor": 0.72
      },
      "normalTexture": {
        "index": 5,
        "scale": 0.72
      },
      "extras": {
        "neoeng_role": "cloth",
        "source": "procedural_original"
      }
    },
    {
      "name": "Leather_Belts",
      "doubleSided": true,
      "pbrMetallicRoughness": {
        "baseColorTexture": {
          "index": 9
        },
        "metallicRoughnessTexture": {
          "index": 10
        },
        "metallicFactor": 0.05,
        "roughnessFactor": 0.72
      },
      "normalTexture": {
        "index": 11,
        "scale": 0.72
      },
      "extras": {
        "neoeng_role": "leather",
        "source": "procedural_original"
      }
    },
    {
      "name": "Leather_Boots",
      "doubleSided": true,
      "pbrMetallicRoughness": {
        "baseColorTexture": {
          "index": 9
        },
        "metallicRoughnessTexture": {
          "index": 10
        },
        "metallicFactor": 0.05,
        "roughnessFactor": 0.72
      },
      "normalTexture": {
        "index": 11,
        "scale": 0.72
      },
      "extras": {
        "neoeng_role": "leather",
        "source": "procedural_original"
      }
    },
    {
      "name": "Energy_Rune",
      "doubleSided": true,
      "pbrMetallicRoughness": {
        "baseColorTexture": {
          "index": 12
        },
        "metallicRoughnessTexture": {
          "index": 13
        },
        "metallicFactor": 0.05,
        "roughnessFactor": 0.72
      },
      "normalTexture": {
        "index": 14,
        "scale": 0.72
      },
      "extras": {
        "neoeng_role": "energy",
        "source": "procedural_original"
      },
      "emissiveTexture": {
        "index": 12
      },
      "emissiveFactor": [
        0.08,
        0.42,
        1.0
      ],
      "alphaMode": "BLEND"
    }
  ],
  "textures": [
    {
      "sampler": 0,
      "source": 0,
      "name": "armor_basecolor"
    },
    {
      "sampler": 0,
      "source": 1,
      "name": "armor_orm"
    },
    {
      "sampler": 0,
      "source": 2,
      "name": "armor_normal"
    },
    {
      "sampler": 0,
      "source": 3,
      "name": "cloth_basecolor"
    },
    {
      "sampler": 0,
      "source": 4,
      "name": "cloth_orm"
    },
    {
      "sampler": 0,
      "source": 5,
      "name": "cloth_normal"
    },
    {
      "sampler": 0,
      "source": 6,
      "name": "leather_basecolor"
    },
    {
      "sampler": 0,
      "source": 7,
      "name": "leather_orm"
    },
    {
      "sampler": 0,
      "source": 8,
      "name": "leather_normal"
    },
    {
      "sampler": 0,
      "source": 6,
      "name": "leather_basecolor"
    },
    {
      "sampler": 0,
      "source": 7,
      "name": "leather_orm"
    },
    {
      "sampler": 0,
      "source": 8,
      "name": "leather_normal"
    },
    {
      "sampler": 0,
      "source": 9,
      "name": "energy_basecolor"
    },
    {
      "sampler": 0,
      "source": 10,
      "name": "energy_orm"
    },
    {
      "sampler": 0,
      "source": 11,
      "name": "energy_normal"
    }
  ],
  "images": [
    {
      "name": "armor_basecolor.png",
      "uri": "textures/armor_basecolor.png",
      "mimeType": "image/png",
      "sha256": "C2DFAA4024001352C745DBB564684AB98DF6EEE6A446C0320BF5DA196C6957D2"
    },
    {
      "name": "armor_orm.png",
      "uri": "textures/armor_orm.png",
      "mimeType": "image/png",
      "sha256": "FE758877CDA88225A4504344D521C1EA712DB1C25E51903790ED39770DC64ACE"
    },
    {
      "name": "armor_normal.png",
      "uri": "textures/armor_normal.png",
      "mimeType": "image/png",
      "sha256": "EDE049C0927C5B7492AE9A0DC9AFA17498803B54E6C9F859C0D37D5667F74BEC"
    },
    {
      "name": "cloth_basecolor.png",
      "uri": "textures/cloth_basecolor.png",
      "mimeType": "image/png",
      "sha256": "789FD299D0D519DCFFA63ECF189F85E376541155A5ACFDE2424707E18BC1A263"
    },
    {
      "name": "cloth_orm.png",
      "uri": "textures/cloth_orm.png",
      "mimeType": "image/png",
      "sha256": "D80D3A178F40A6BD67E6B1394677C4EECE335F637A8DB5F724F21C8EA5AE171F"
    },
    {
      "name": "cloth_normal.png",
      "uri": "textures/cloth_normal.png",
      "mimeType": "image/png",
      "sha256": "EDE049C0927C5B7492AE9A0DC9AFA17498803B54E6C9F859C0D37D5667F74BEC"
    },
    {
      "name": "leather_basecolor.png",
      "uri": "textures/leather_basecolor.png",
      "mimeType": "image/png",
      "sha256": "3B41345137CAC8221FA1981D424F70E3FF5EEB721688DADE7C141F8422C198A6"
    },
    {
      "name": "leather_orm.png",
      "uri": "textures/leather_orm.png",
      "mimeType": "image/png",
      "sha256": "8430B1E96F61D8FEB619C60F32DC49047A61D1E2C1F88BA1C9F18CB4338E9E27"
    },
    {
      "name": "leather_normal.png",
      "uri": "textures/leather_normal.png",
      "mimeType": "image/png",
      "sha256": "B8493D618AEF785C0F10405DC13FBB681C55D3384773479518EF635CD05A0CD5"
    },
    {
      "name": "energy_basecolor.png",
      "uri": "textures/energy_basecolor.png",
      "mimeType": "image/png",
      "sha256": "D63B1595802C74B729733E85A77A2903F410DC740BC5583E0EBE88CB261D4DB7"
    },
    {
      "name": "energy_orm.png",
      "uri": "textures/energy_orm.png",
      "mimeType": "image/png",
      "sha256": "6323FE7F41CFE03097F3BBF273C3046F2D8377A51F5983A5177F961290864506"
    },
    {
      "name": "energy_normal.png",
      "uri": "textures/energy_normal.png",
      "mimeType": "image/png",
      "sha256": "1CF9794CA81E4D8ACA2CC28F526EFB383B2D38C98080D7D04810626EAC5F81EC"
    }
  ],
  "samplers": [
    {
      "magFilter": 9729,
      "minFilter": 9987,
      "wrapS": 10497,
      "wrapT": 10497
    }
  ],
  "skins": [
    {
      "name": "EclipseWarden_Skeleton",
      "joints": [
        1,
        2,
        3,
        4,
        5,
        6,
        7,
        8,
        9,
        10,
        11,
        12,
        13,
        14,
        15,
        16,
        17,
        18
      ],
      "skeleton": 1,
      "inverseBindMatrices": 138
    }
  ],
  "animations": [
    {
      "name": "Idle",
      "samplers": [
        {
          "input": 139,
          "interpolation": "LINEAR",
          "output": 140
        },
        {
          "input": 139,
          "interpolation": "LINEAR",
          "output": 141
        },
        {
          "input": 139,
          "interpolation": "LINEAR",
          "output": 142
        }
      ],
      "channels": [
        {
          "sampler": 0,
          "target": {
            "node": 4,
            "path": "rotation"
          }
        },
        {
          "sampler": 1,
          "target": {
            "node": 7,
            "path": "rotation"
          }
        },
        {
          "sampler": 2,
          "target": {
            "node": 10,
            "path": "rotation"
          }
        }
      ],
      "extras": {
        "loop": true,
        "intended_use": "Unity Animator idle state"
      }
    }
  ],
  "buffers": [
    {
      "byteLength": 108188,
      "uri": "eclipse_warden.bin"
    }
  ],
  "bufferViews": [
    {
      "buffer": 0,
      "byteOffset": 0,
      "byteLength": 576,
      "target": 34962
    },
    {
      "buffer": 0,
      "byteOffset": 576,
      "byteLength": 576,
      "target": 34962
    },
    {
      "buffer": 0,
      "byteOffset": 1152,
      "byteLength": 384,
      "target": 34962
    },
    {
      "buffer": 0,
      "byteOffset": 1536,
      "byteLength": 192,
      "target": 34962
    },
    {
      "buffer": 0,
      "byteOffset": 1728,
      "byteLength": 768,
      "target": 34962
    },
    {
      "buffer": 0,
      "byteOffset": 2496,
      "byteLength": 144,
      "target": 34963
    },
    {
      "buffer": 0,
      "byteOffset": 2640,
      "byteLength": 3408,
      "target": 34962
    },
    {
      "buffer": 0,
      "byteOffset": 6048,
      "byteLength": 3408,
      "target": 34962
    },
    {
      "buffer": 0,
      "byteOffset": 9456,
      "byteLength": 2272,
      "target": 34962
    },
    {
      "buffer": 0,
      "byteOffset": 11728,
      "byteLength": 1136,
      "target": 34962
    },
    {
      "buffer": 0,
      "byteOffset": 12864,
      "byteLength": 4544,
      "target": 34962
    },
    {
      "buffer": 0,
      "byteOffset": 17408,
      "byteLength": 2952,
      "target": 34963
    },
    {
      "buffer": 0,
      "byteOffset": 20360,
      "byteLength": 576,
      "target": 34962
    },
    {
      "buffer": 0,
      "byteOffset": 20936,
      "byteLength": 576,
      "target": 34962
    },
    {
      "buffer": 0,
      "byteOffset": 21512,
      "byteLength": 384,
      "target": 34962
    },
    {
      "buffer": 0,
      "byteOffset": 21896,
      "byteLength": 192,
      "target": 34962
    },
    {
      "buffer": 0,
      "byteOffset": 22088,
      "byteLength": 768,
      "target": 34962
    },
    {
      "buffer": 0,
      "byteOffset": 22856,
      "byteLength": 144,
      "target": 34963
    },
    {
      "buffer": 0,
      "byteOffset": 23000,
      "byteLength": 3120,
      "target": 34962
    },
    {
      "buffer": 0,
      "byteOffset": 26120,
      "byteLength": 3120,
      "target": 34962
    },
    {
      "buffer": 0,
      "byteOffset": 29240,
      "byteLength": 2080,
      "target": 34962
    },
    {
      "buffer": 0,
      "byteOffset": 31320,
      "byteLength": 1040,
      "target": 34962
    },
    {
      "buffer": 0,
      "byteOffset": 32360,
      "byteLength": 4160,
      "target": 34962
    },
    {
      "buffer": 0,
      "byteOffset": 36520,
      "byteLength": 2880,
      "target": 34963
    },
    {
      "buffer": 0,
      "byteOffset": 39400,
      "byteLength": 288,
      "target": 34962
    },
    {
      "buffer": 0,
      "byteOffset": 39688,
      "byteLength": 288,
      "target": 34962
    },
    {
      "buffer": 0,
      "byteOffset": 39976,
      "byteLength": 192,
      "target": 34962
    },
    {
      "buffer": 0,
      "byteOffset": 40168,
      "byteLength": 96,
      "target": 34962
    },
    {
      "buffer": 0,
      "byteOffset": 40264,
      "byteLength": 384,
      "target": 34962
    },
    {
      "buffer": 0,
      "byteOffset": 40648,
      "byteLength": 72,
      "target": 34963
    },
    {
      "buffer": 0,
      "byteOffset": 40720,
      "byteLength": 1848,
      "target": 34962
    },
    {
      "buffer": 0,
      "byteOffset": 42568,
      "byteLength": 1848,
      "target": 34962
    },
    {
      "buffer": 0,
      "byteOffset": 44416,
      "byteLength": 1232,
      "target": 34962
    },
    {
      "buffer": 0,
      "byteOffset": 45648,
      "byteLength": 616,
      "target": 34962
    },
    {
      "buffer": 0,
      "byteOffset": 46264,
      "byteLength": 2464,
      "target": 34962
    },
    {
      "buffer": 0,
      "byteOffset": 48728,
      "byteLength": 456,
      "target": 34963
    },
    {
      "buffer": 0,
      "byteOffset": 49184,
      "byteLength": 3120,
      "target": 34962
    },
    {
      "buffer": 0,
      "byteOffset": 52304,
      "byteLength": 3120,
      "target": 34962
    },
    {
      "buffer": 0,
      "byteOffset": 55424,
      "byteLength": 2080,
      "target": 34962
    },
    {
      "buffer": 0,
      "byteOffset": 57504,
      "byteLength": 1040,
      "target": 34962
    },
    {
      "buffer": 0,
      "byteOffset": 58544,
      "byteLength": 4160,
      "target": 34962
    },
    {
      "buffer": 0,
      "byteOffset": 62704,
      "byteLength": 2880,
      "target": 34963
    },
    {
      "buffer": 0,
      "byteOffset": 65584,
      "byteLength": 288,
      "target": 34962
    },
    {
      "buffer": 0,
      "byteOffset": 65872,
      "byteLength": 288,
      "target": 34962
    },
    {
      "buffer": 0,
      "byteOffset": 66160,
      "byteLength": 192,
      "target": 34962
    },
    {
      "buffer": 0,
      "byteOffset": 66352,
      "byteLength": 96,
      "target": 34962
    },
    {
      "buffer": 0,
      "byteOffset": 66448,
      "byteLength": 384,
      "target": 34962
    },
    {
      "buffer": 0,
      "byteOffset": 66832,
      "byteLength": 72,
      "target": 34963
    },
    {
      "buffer": 0,
      "byteOffset": 66904,
      "byteLength": 1848,
      "target": 34962
    },
    {
      "buffer": 0,
      "byteOffset": 68752,
      "byteLength": 1848,
      "target": 34962
    },
    {
      "buffer": 0,
      "byteOffset": 70600,
      "byteLength": 1232,
      "target": 34962
    },
    {
      "buffer": 0,
      "byteOffset": 71832,
      "byteLength": 616,
      "target": 34962
    },
    {
      "buffer": 0,
      "byteOffset": 72448,
      "byteLength": 2464,
      "target": 34962
    },
    {
      "buffer": 0,
      "byteOffset": 74912,
      "byteLength": 456,
      "target": 34963
    },
    {
      "buffer": 0,
      "byteOffset": 75368,
      "byteLength": 576,
      "target": 34962
    },
    {
      "buffer": 0,
      "byteOffset": 75944,
      "byteLength": 576,
      "target": 34962
    },
    {
      "buffer": 0,
      "byteOffset": 76520,
      "byteLength": 384,
      "target": 34962
    },
    {
      "buffer": 0,
      "byteOffset": 76904,
      "byteLength": 192,
      "target": 34962
    },
    {
      "buffer": 0,
      "byteOffset": 77096,
      "byteLength": 768,
      "target": 34962
    },
    {
      "buffer": 0,
      "byteOffset": 77864,
      "byteLength": 144,
      "target": 34963
    },
    {
      "buffer": 0,
      "byteOffset": 78008,
      "byteLength": 432,
      "target": 34962
    },
    {
      "buffer": 0,
      "byteOffset": 78440,
      "byteLength": 432,
      "target": 34962
    },
    {
      "buffer": 0,
      "byteOffset": 78872,
      "byteLength": 288,
      "target": 34962
    },
    {
      "buffer": 0,
      "byteOffset": 79160,
      "byteLength": 144,
      "target": 34962
    },
    {
      "buffer": 0,
      "byteOffset": 79304,
      "byteLength": 576,
      "target": 34962
    },
    {
      "buffer": 0,
      "byteOffset": 79880,
      "byteLength": 300,
      "target": 34963
    },
    {
      "buffer": 0,
      "byteOffset": 80180,
      "byteLength": 432,
      "target": 34962
    },
    {
      "buffer": 0,
      "byteOffset": 80612,
      "byteLength": 432,
      "target": 34962
    },
    {
      "buffer": 0,
      "byteOffset": 81044,
      "byteLength": 288,
      "target": 34962
    },
    {
      "buffer": 0,
      "byteOffset": 81332,
      "byteLength": 144,
      "target": 34962
    },
    {
      "buffer": 0,
      "byteOffset": 81476,
      "byteLength": 576,
      "target": 34962
    },
    {
      "buffer": 0,
      "byteOffset": 82052,
      "byteLength": 300,
      "target": 34963
    },
    {
      "buffer": 0,
      "byteOffset": 82352,
      "byteLength": 288,
      "target": 34962
    },
    {
      "buffer": 0,
      "byteOffset": 82640,
      "byteLength": 288,
      "target": 34962
    },
    {
      "buffer": 0,
      "byteOffset": 82928,
      "byteLength": 192,
      "target": 34962
    },
    {
      "buffer": 0,
      "byteOffset": 83120,
      "byteLength": 96,
      "target": 34962
    },
    {
      "buffer": 0,
      "byteOffset": 83216,
      "byteLength": 384,
      "target": 34962
    },
    {
      "buffer": 0,
      "byteOffset": 83600,
      "byteLength": 72,
      "target": 34963
    },
    {
      "buffer": 0,
      "byteOffset": 83672,
      "byteLength": 576,
      "target": 34962
    },
    {
      "buffer": 0,
      "byteOffset": 84248,
      "byteLength": 576,
      "target": 34962
    },
    {
      "buffer": 0,
      "byteOffset": 84824,
      "byteLength": 384,
      "target": 34962
    },
    {
      "buffer": 0,
      "byteOffset": 85208,
      "byteLength": 192,
      "target": 34962
    },
    {
      "buffer": 0,
      "byteOffset": 85400,
      "byteLength": 768,
      "target": 34962
    },
    {
      "buffer": 0,
      "byteOffset": 86168,
      "byteLength": 144,
      "target": 34963
    },
    {
      "buffer": 0,
      "byteOffset": 86312,
      "byteLength": 432,
      "target": 34962
    },
    {
      "buffer": 0,
      "byteOffset": 86744,
      "byteLength": 432,
      "target": 34962
    },
    {
      "buffer": 0,
      "byteOffset": 87176,
      "byteLength": 288,
      "target": 34962
    },
    {
      "buffer": 0,
      "byteOffset": 87464,
      "byteLength": 144,
      "target": 34962
    },
    {
      "buffer": 0,
      "byteOffset": 87608,
      "byteLength": 576,
      "target": 34962
    },
    {
      "buffer": 0,
      "byteOffset": 88184,
      "byteLength": 300,
      "target": 34963
    },
    {
      "buffer": 0,
      "byteOffset": 88484,
      "byteLength": 288,
      "target": 34962
    },
    {
      "buffer": 0,
      "byteOffset": 88772,
      "byteLength": 288,
      "target": 34962
    },
    {
      "buffer": 0,
      "byteOffset": 89060,
      "byteLength": 192,
      "target": 34962
    },
    {
      "buffer": 0,
      "byteOffset": 89252,
      "byteLength": 96,
      "target": 34962
    },
    {
      "buffer": 0,
      "byteOffset": 89348,
      "byteLength": 384,
      "target": 34962
    },
    {
      "buffer": 0,
      "byteOffset": 89732,
      "byteLength": 72,
      "target": 34963
    },
    {
      "buffer": 0,
      "byteOffset": 89804,
      "byteLength": 576,
      "target": 34962
    },
    {
      "buffer": 0,
      "byteOffset": 90380,
      "byteLength": 576,
      "target": 34962
    },
    {
      "buffer": 0,
      "byteOffset": 90956,
      "byteLength": 384,
      "target": 34962
    },
    {
      "buffer": 0,
      "byteOffset": 91340,
      "byteLength": 192,
      "target": 34962
    },
    {
      "buffer": 0,
      "byteOffset": 91532,
      "byteLength": 768,
      "target": 34962
    },
    {
      "buffer": 0,
      "byteOffset": 92300,
      "byteLength": 144,
      "target": 34963
    },
    {
      "buffer": 0,
      "byteOffset": 92444,
      "byteLength": 432,
      "target": 34962
    },
    {
      "buffer": 0,
      "byteOffset": 92876,
      "byteLength": 432,
      "target": 34962
    },
    {
      "buffer": 0,
      "byteOffset": 93308,
      "byteLength": 288,
      "target": 34962
    },
    {
      "buffer": 0,
      "byteOffset": 93596,
      "byteLength": 144,
      "target": 34962
    },
    {
      "buffer": 0,
      "byteOffset": 93740,
      "byteLength": 576,
      "target": 34962
    },
    {
      "buffer": 0,
      "byteOffset": 94316,
      "byteLength": 300,
      "target": 34963
    },
    {
      "buffer": 0,
      "byteOffset": 94616,
      "byteLength": 432,
      "target": 34962
    },
    {
      "buffer": 0,
      "byteOffset": 95048,
      "byteLength": 432,
      "target": 34962
    },
    {
      "buffer": 0,
      "byteOffset": 95480,
      "byteLength": 288,
      "target": 34962
    },
    {
      "buffer": 0,
      "byteOffset": 95768,
      "byteLength": 144,
      "target": 34962
    },
    {
      "buffer": 0,
      "byteOffset": 95912,
      "byteLength": 576,
      "target": 34962
    },
    {
      "buffer": 0,
      "byteOffset": 96488,
      "byteLength": 300,
      "target": 34963
    },
    {
      "buffer": 0,
      "byteOffset": 96788,
      "byteLength": 432,
      "target": 34962
    },
    {
      "buffer": 0,
      "byteOffset": 97220,
      "byteLength": 432,
      "target": 34962
    },
    {
      "buffer": 0,
      "byteOffset": 97652,
      "byteLength": 288,
      "target": 34962
    },
    {
      "buffer": 0,
      "byteOffset": 97940,
      "byteLength": 144,
      "target": 34962
    },
    {
      "buffer": 0,
      "byteOffset": 98084,
      "byteLength": 576,
      "target": 34962
    },
    {
      "buffer": 0,
      "byteOffset": 98660,
      "byteLength": 300,
      "target": 34963
    },
    {
      "buffer": 0,
      "byteOffset": 98960,
      "byteLength": 480,
      "target": 34962
    },
    {
      "buffer": 0,
      "byteOffset": 99440,
      "byteLength": 480,
      "target": 34962
    },
    {
      "buffer": 0,
      "byteOffset": 99920,
      "byteLength": 320,
      "target": 34962
    },
    {
      "buffer": 0,
      "byteOffset": 100240,
      "byteLength": 160,
      "target": 34962
    },
    {
      "buffer": 0,
      "byteOffset": 100400,
      "byteLength": 640,
      "target": 34962
    },
    {
      "buffer": 0,
      "byteOffset": 101040,
      "byteLength": 120,
      "target": 34963
    },
    {
      "buffer": 0,
      "byteOffset": 101160,
      "byteLength": 960,
      "target": 34962
    },
    {
      "buffer": 0,
      "byteOffset": 102120,
      "byteLength": 960,
      "target": 34962
    },
    {
      "buffer": 0,
      "byteOffset": 103080,
      "byteLength": 640,
      "target": 34962
    },
    {
      "buffer": 0,
      "byteOffset": 103720,
      "byteLength": 320,
      "target": 34962
    },
    {
      "buffer": 0,
      "byteOffset": 104040,
      "byteLength": 1280,
      "target": 34962
    },
    {
      "buffer": 0,
      "byteOffset": 105320,
      "byteLength": 240,
      "target": 34963
    },
    {
      "buffer": 0,
      "byteOffset": 105560,
      "byteLength": 288,
      "target": 34962
    },
    {
      "buffer": 0,
      "byteOffset": 105848,
      "byteLength": 288,
      "target": 34962
    },
    {
      "buffer": 0,
      "byteOffset": 106136,
      "byteLength": 192,
      "target": 34962
    },
    {
      "buffer": 0,
      "byteOffset": 106328,
      "byteLength": 96,
      "target": 34962
    },
    {
      "buffer": 0,
      "byteOffset": 106424,
      "byteLength": 384,
      "target": 34962
    },
    {
      "buffer": 0,
      "byteOffset": 106808,
      "byteLength": 72,
      "target": 34963
    },
    {
      "buffer": 0,
      "byteOffset": 106880,
      "byteLength": 1152
    },
    {
      "buffer": 0,
      "byteOffset": 108032,
      "byteLength": 12
    },
    {
      "buffer": 0,
      "byteOffset": 108044,
      "byteLength": 48
    },
    {
      "buffer": 0,
      "byteOffset": 108092,
      "byteLength": 48
    },
    {
      "buffer": 0,
      "byteOffset": 108140,
      "byteLength": 48
    }
  ],
  "accessors": [
    {
      "bufferView": 0,
      "componentType": 5126,
      "count": 48,
      "type": "VEC3",
      "min": [
        -0.59,
        2.38,
        -0.37
      ],
      "max": [
        0.59,
        3.8600000000000003,
        0.47
      ]
    },
    {
      "bufferView": 1,
      "componentType": 5126,
      "count": 48,
      "type": "VEC3"
    },
    {
      "bufferView": 2,
      "componentType": 5126,
      "count": 48,
      "type": "VEC2",
      "min": [
        0.0,
        0.0
      ],
      "max": [
        1.0,
        1.0
      ]
    },
    {
      "bufferView": 3,
      "componentType": 5121,
      "count": 48,
      "type": "VEC4"
    },
    {
      "bufferView": 4,
      "componentType": 5126,
      "count": 48,
      "type": "VEC4"
    },
    {
      "bufferView": 5,
      "componentType": 5123,
      "count": 72,
      "type": "SCALAR",
      "min": [
        0
      ],
      "max": [
        47
      ]
    },
    {
      "bufferView": 6,
      "componentType": 5126,
      "count": 284,
      "type": "VEC3",
      "min": [
        -0.52,
        3.6799999999999997,
        -0.49
      ],
      "max": [
        0.52,
        4.92,
        0.47
      ]
    },
    {
      "bufferView": 7,
      "componentType": 5126,
      "count": 284,
      "type": "VEC3"
    },
    {
      "bufferView": 8,
      "componentType": 5126,
      "count": 284,
      "type": "VEC2",
      "min": [
        0.0,
        0.0
      ],
      "max": [
        1.0,
        1.0
      ]
    },
    {
      "bufferView": 9,
      "componentType": 5121,
      "count": 284,
      "type": "VEC4"
    },
    {
      "bufferView": 10,
      "componentType": 5126,
      "count": 284,
      "type": "VEC4"
    },
    {
      "bufferView": 11,
      "componentType": 5123,
      "count": 1476,
      "type": "SCALAR",
      "min": [
        0
      ],
      "max": [
        283
      ]
    },
    {
      "bufferView": 12,
      "componentType": 5126,
      "count": 48,
      "type": "VEC3",
      "min": [
        -0.25,
        4.0,
        0.365
      ],
      "max": [
        0.25,
        4.52,
        0.53
      ]
    },
    {
      "bufferView": 13,
      "componentType": 5126,
      "count": 48,
      "type": "VEC3"
    },
    {
      "bufferView": 14,
      "componentType": 5126,
      "count": 48,
      "type": "VEC2",
      "min": [
        0.0,
        0.0
      ],
      "max": [
        1.0,
        1.0
      ]
    },
    {
      "bufferView": 15,
      "componentType": 5121,
      "count": 48,
      "type": "VEC4"
    },
    {
      "bufferView": 16,
      "componentType": 5126,
      "count": 48,
      "type": "VEC4"
    },
    {
      "bufferView": 17,
      "componentType": 5123,
      "count": 72,
      "type": "SCALAR",
      "min": [
        0
      ],
      "max": [
        47
      ]
    },
    {
      "bufferView": 18,
      "componentType": 5126,
      "count": 260,
      "type": "VEC3",
      "min": [
        -1.14,
        3.4000000000000004,
        -0.48
      ],
      "max": [
        -0.3,
        3.96,
        0.48
      ]
    },
    {
      "bufferView": 19,
      "componentType": 5126,
      "count": 260,
      "type": "VEC3"
    },
    {
      "bufferView": 20,
      "componentType": 5126,
      "count": 260,
      "type": "VEC2",
      "min": [
        0.0,
        0.0
      ],
      "max": [
        0.95,
        1.0
      ]
    },
    {
      "bufferView": 21,
      "componentType": 5121,
      "count": 260,
      "type": "VEC4"
    },
    {
      "bufferView": 22,
      "componentType": 5126,
      "count": 260,
      "type": "VEC4"
    },
    {
      "bufferView": 23,
      "componentType": 5123,
      "count": 1440,
      "type": "SCALAR",
      "min": [
        0
      ],
      "max": [
        259
      ]
    },
    {
      "bufferView": 24,
      "componentType": 5126,
      "count": 24,
      "type": "VEC3",
      "min": [
        -1.13,
        2.9099999999999997,
        -0.23
      ],
      "max": [
        -0.75,
        3.69,
        0.23
      ]
    },
    {
      "bufferView": 25,
      "componentType": 5126,
      "count": 24,
      "type": "VEC3"
    },
    {
      "bufferView": 26,
      "componentType": 5126,
      "count": 24,
      "type": "VEC2",
      "min": [
        0.0,
        0.0
      ],
      "max": [
        1.0,
        1.0
      ]
    },
    {
      "bufferView": 27,
      "componentType": 5121,
      "count": 24,
      "type": "VEC4"
    },
    {
      "bufferView": 28,
      "componentType": 5126,
      "count": 24,
      "type": "VEC4"
    },
    {
      "bufferView": 29,
      "componentType": 5123,
      "count": 36,
      "type": "SCALAR",
      "min": [
        0
      ],
      "max": [
        23
      ]
    },
    {
      "bufferView": 30,
      "componentType": 5126,
      "count": 154,
      "type": "VEC3",
      "min": [
        -1.28,
        2.3,
        -0.14
      ],
      "max": [
        -0.9200000000000002,
        2.88,
        0.3
      ]
    },
    {
      "bufferView": 31,
      "componentType": 5126,
      "count": 154,
      "type": "VEC3"
    },
    {
      "bufferView": 32,
      "componentType": 5126,
      "count": 154,
      "type": "VEC2",
      "min": [
        0.0,
        0.0
      ],
      "max": [
        1.0,
        1.0
      ]
    },
    {
      "bufferView": 33,
      "componentType": 5121,
      "count": 154,
      "type": "VEC4"
    },
    {
      "bufferView": 34,
      "componentType": 5126,
      "count": 154,
      "type": "VEC4"
    },
    {
      "bufferView": 35,
      "componentType": 5123,
      "count": 228,
      "type": "SCALAR",
      "min": [
        0
      ],
      "max": [
        153
      ]
    },
    {
      "bufferView": 36,
      "componentType": 5126,
      "count": 260,
      "type": "VEC3",
      "min": [
        0.3,
        3.4000000000000004,
        -0.48
      ],
      "max": [
        1.14,
        3.96,
        0.48
      ]
    },
    {
      "bufferView": 37,
      "componentType": 5126,
      "count": 260,
      "type": "VEC3"
    },
    {
      "bufferView": 38,
      "componentType": 5126,
      "count": 260,
      "type": "VEC2",
      "min": [
        0.0,
        0.0
      ],
      "max": [
        0.95,
        1.0
      ]
    },
    {
      "bufferView": 39,
      "componentType": 5121,
      "count": 260,
      "type": "VEC4"
    },
    {
      "bufferView": 40,
      "componentType": 5126,
      "count": 260,
      "type": "VEC4"
    },
    {
      "bufferView": 41,
      "componentType": 5123,
      "count": 1440,
      "type": "SCALAR",
      "min": [
        0
      ],
      "max": [
        259
      ]
    },
    {
      "bufferView": 42,
      "componentType": 5126,
      "count": 24,
      "type": "VEC3",
      "min": [
        0.75,
        2.9099999999999997,
        -0.23
      ],
      "max": [
        1.13,
        3.69,
        0.23
      ]
    },
    {
      "bufferView": 43,
      "componentType": 5126,
      "count": 24,
      "type": "VEC3"
    },
    {
      "bufferView": 44,
      "componentType": 5126,
      "count": 24,
      "type": "VEC2",
      "min": [
        0.0,
        0.0
      ],
      "max": [
        1.0,
        1.0
      ]
    },
    {
      "bufferView": 45,
      "componentType": 5121,
      "count": 24,
      "type": "VEC4"
    },
    {
      "bufferView": 46,
      "componentType": 5126,
      "count": 24,
      "type": "VEC4"
    },
    {
      "bufferView": 47,
      "componentType": 5123,
      "count": 36,
      "type": "SCALAR",
      "min": [
        0
      ],
      "max": [
        23
      ]
    },
    {
      "bufferView": 48,
      "componentType": 5126,
      "count": 154,
      "type": "VEC3",
      "min": [
        0.9200000000000002,
        2.3,
        -0.14
      ],
      "max": [
        1.28,
        2.88,
        0.3
      ]
    },
    {
      "bufferView": 49,
      "componentType": 5126,
      "count": 154,
      "type": "VEC3"
    },
    {
      "bufferView": 50,
      "componentType": 5126,
      "count": 154,
      "type": "VEC2",
      "min": [
        0.0,
        0.0
      ],
      "max": [
        1.0,
        1.0
      ]
    },
    {
      "bufferView": 51,
      "componentType": 5121,
      "count": 154,
      "type": "VEC4"
    },
    {
      "bufferView": 52,
      "componentType": 5126,
      "count": 154,
      "type": "VEC4"
    },
    {
      "bufferView": 53,
      "componentType": 5123,
      "count": 228,
      "type": "SCALAR",
      "min": [
        0
      ],
      "max": [
        153
      ]
    },
    {
      "bufferView": 54,
      "componentType": 5126,
      "count": 48,
      "type": "VEC3",
      "min": [
        -0.67,
        2.2199999999999998,
        -0.41
      ],
      "max": [
        0.67,
        2.5,
        0.48
      ]
    },
    {
      "bufferView": 55,
      "componentType": 5126,
      "count": 48,
      "type": "VEC3"
    },
    {
      "bufferView": 56,
      "componentType": 5126,
      "count": 48,
      "type": "VEC2",
      "min": [
        0.0,
        0.0
      ],
      "max": [
        1.0,
        1.0
      ]
    },
    {
      "bufferView": 57,
      "componentType": 5121,
      "count": 48,
      "type": "VEC4"
    },
    {
      "bufferView": 58,
      "componentType": 5126,
      "count": 48,
      "type": "VEC4"
    },
    {
      "bufferView": 59,
      "componentType": 5123,
      "count": 72,
      "type": "SCALAR",
      "min": [
        0
      ],
      "max": [
        47
      ]
    },
    {
      "bufferView": 60,
      "componentType": 5126,
      "count": 36,
      "type": "VEC3",
      "min": [
        -0.575,
        1.08,
        0.40195773934819384
      ],
      "max": [
        0.575,
        2.3,
        0.44
      ]
    },
    {
      "bufferView": 61,
      "componentType": 5126,
      "count": 36,
      "type": "VEC3"
    },
    {
      "bufferView": 62,
      "componentType": 5126,
      "count": 36,
      "type": "VEC2",
      "min": [
        0.0,
        0.0
      ],
      "max": [
        1.0,
        1.0
      ]
    },
    {
      "bufferView": 63,
      "componentType": 5121,
      "count": 36,
      "type": "VEC4"
    },
    {
      "bufferView": 64,
      "componentType": 5126,
      "count": 36,
      "type": "VEC4"
    },
    {
      "bufferView": 65,
      "componentType": 5123,
      "count": 150,
      "type": "SCALAR",
      "min": [
        0
      ],
      "max": [
        35
      ]
    },
    {
      "bufferView": 66,
      "componentType": 5126,
      "count": 36,
      "type": "VEC3",
      "min": [
        -0.72,
        1.15,
        -0.056084521303612286
      ],
      "max": [
        -0.12,
        2.29,
        0.02
      ]
    },
    {
      "bufferView": 67,
      "componentType": 5126,
      "count": 36,
      "type": "VEC3"
    },
    {
      "bufferView": 68,
      "componentType": 5126,
      "count": 36,
      "type": "VEC2",
      "min": [
        0.0,
        0.0
      ],
      "max": [
        1.0,
        1.0
      ]
    },
    {
      "bufferView": 69,
      "componentType": 5121,
      "count": 36,
      "type": "VEC4"
    },
    {
      "bufferView": 70,
      "componentType": 5126,
      "count": 36,
      "type": "VEC4"
    },
    {
      "bufferView": 71,
      "componentType": 5123,
      "count": 150,
      "type": "SCALAR",
      "min": [
        0
      ],
      "max": [
        35
      ]
    },
    {
      "bufferView": 72,
      "componentType": 5126,
      "count": 24,
      "type": "VEC3",
      "min": [
        -0.51,
        1.1099999999999999,
        -0.28
      ],
      "max": [
        -0.06999999999999998,
        1.87,
        0.28
      ]
    },
    {
      "bufferView": 73,
      "componentType": 5126,
      "count": 24,
      "type": "VEC3"
    },
    {
      "bufferView": 74,
      "componentType": 5126,
      "count": 24,
      "type": "VEC2",
      "min": [
        0.0,
        0.0
      ],
      "max": [
        1.0,
        1.0
      ]
    },
    {
      "bufferView": 75,
      "componentType": 5121,
      "count": 24,
      "type": "VEC4"
    },
    {
      "bufferView": 76,
      "componentType": 5126,
      "count": 24,
      "type": "VEC4"
    },
    {
      "bufferView": 77,
      "componentType": 5123,
      "count": 36,
      "type": "SCALAR",
      "min": [
        0
      ],
      "max": [
        23
      ]
    },
    {
      "bufferView": 78,
      "componentType": 5126,
      "count": 48,
      "type": "VEC3",
      "min": [
        -0.56,
        0.020000000000000018,
        -0.30000000000000004
      ],
      "max": [
        -0.019999999999999962,
        0.97,
        0.76
      ]
    },
    {
      "bufferView": 79,
      "componentType": 5126,
      "count": 48,
      "type": "VEC3"
    },
    {
      "bufferView": 80,
      "componentType": 5126,
      "count": 48,
      "type": "VEC2",
      "min": [
        0.0,
        0.0
      ],
      "max": [
        1.0,
        1.0
      ]
    },
    {
      "bufferView": 81,
      "componentType": 5121,
      "count": 48,
      "type": "VEC4"
    },
    {
      "bufferView": 82,
      "componentType": 5126,
      "count": 48,
      "type": "VEC4"
    },
    {
      "bufferView": 83,
      "componentType": 5123,
      "count": 72,
      "type": "SCALAR",
      "min": [
        0
      ],
      "max": [
        47
      ]
    },
    {
      "bufferView": 84,
      "componentType": 5126,
      "count": 36,
      "type": "VEC3",
      "min": [
        0.12,
        1.15,
        -0.056084521303612286
      ],
      "max": [
        0.72,
        2.29,
        0.02
      ]
    },
    {
      "bufferView": 85,
      "componentType": 5126,
      "count": 36,
      "type": "VEC3"
    },
    {
      "bufferView": 86,
      "componentType": 5126,
      "count": 36,
      "type": "VEC2",
      "min": [
        0.0,
        0.0
      ],
      "max": [
        1.0,
        1.0
      ]
    },
    {
      "bufferView": 87,
      "componentType": 5121,
      "count": 36,
      "type": "VEC4"
    },
    {
      "bufferView": 88,
      "componentType": 5126,
      "count": 36,
      "type": "VEC4"
    },
    {
      "bufferView": 89,
      "componentType": 5123,
      "count": 150,
      "type": "SCALAR",
      "min": [
        0
      ],
      "max": [
        35
      ]
    },
    {
      "bufferView": 90,
      "componentType": 5126,
      "count": 24,
      "type": "VEC3",
      "min": [
        0.06999999999999998,
        1.1099999999999999,
        -0.28
      ],
      "max": [
        0.51,
        1.87,
        0.28
      ]
    },
    {
      "bufferView": 91,
      "componentType": 5126,
      "count": 24,
      "type": "VEC3"
    },
    {
      "bufferView": 92,
      "componentType": 5126,
      "count": 24,
      "type": "VEC2",
      "min": [
        0.0,
        0.0
      ],
      "max": [
        1.0,
        1.0
      ]
    },
    {
      "bufferView": 93,
      "componentType": 5121,
      "count": 24,
      "type": "VEC4"
    },
    {
      "bufferView": 94,
      "componentType": 5126,
      "count": 24,
      "type": "VEC4"
    },
    {
      "bufferView": 95,
      "componentType": 5123,
      "count": 36,
      "type": "SCALAR",
      "min": [
        0
      ],
      "max": [
        23
      ]
    },
    {
      "bufferView": 96,
      "componentType": 5126,
      "count": 48,
      "type": "VEC3",
      "min": [
        0.019999999999999962,
        0.020000000000000018,
        -0.30000000000000004
      ],
      "max": [
        0.56,
        0.97,
        0.76
      ]
    },
    {
      "bufferView": 97,
      "componentType": 5126,
      "count": 48,
      "type": "VEC3"
    },
    {
      "bufferView": 98,
      "componentType": 5126,
      "count": 48,
      "type": "VEC2",
      "min": [
        0.0,
        0.0
      ],
      "max": [
        1.0,
        1.0
      ]
    },
    {
      "bufferView": 99,
      "componentType": 5121,
      "count": 48,
      "type": "VEC4"
    },
    {
      "bufferView": 100,
      "componentType": 5126,
      "count": 48,
      "type": "VEC4"
    },
    {
      "bufferView": 101,
      "componentType": 5123,
      "count": 72,
      "type": "SCALAR",
      "min": [
        0
      ],
      "max": [
        47
      ]
    },
    {
      "bufferView": 102,
      "componentType": 5126,
      "count": 36,
      "type": "VEC3",
      "min": [
        -0.46,
        1.04,
        -0.5741267819554184
      ],
      "max": [
        0.46,
        3.9,
        -0.46
      ]
    },
    {
      "bufferView": 103,
      "componentType": 5126,
      "count": 36,
      "type": "VEC3"
    },
    {
      "bufferView": 104,
      "componentType": 5126,
      "count": 36,
      "type": "VEC2",
      "min": [
        0.0,
        0.0
      ],
      "max": [
        1.0,
        1.0
      ]
    },
    {
      "bufferView": 105,
      "componentType": 5121,
      "count": 36,
      "type": "VEC4"
    },
    {
      "bufferView": 106,
      "componentType": 5126,
      "count": 36,
      "type": "VEC4"
    },
    {
      "bufferView": 107,
      "componentType": 5123,
      "count": 150,
      "type": "SCALAR",
      "min": [
        0
      ],
      "max": [
        35
      ]
    },
    {
      "bufferView": 108,
      "componentType": 5126,
      "count": 36,
      "type": "VEC3",
      "min": [
        -0.95,
        1.3600000000000003,
        -0.5521690426072245
      ],
      "max": [
        -0.25,
        3.7,
        -0.4
      ]
    },
    {
      "bufferView": 109,
      "componentType": 5126,
      "count": 36,
      "type": "VEC3"
    },
    {
      "bufferView": 110,
      "componentType": 5126,
      "count": 36,
      "type": "VEC2",
      "min": [
        0.0,
        0.0
      ],
      "max": [
        1.0,
        1.0
      ]
    },
    {
      "bufferView": 111,
      "componentType": 5121,
      "count": 36,
      "type": "VEC4"
    },
    {
      "bufferView": 112,
      "componentType": 5126,
      "count": 36,
      "type": "VEC4"
    },
    {
      "bufferView": 113,
      "componentType": 5123,
      "count": 150,
      "type": "SCALAR",
      "min": [
        0
      ],
      "max": [
        35
      ]
    },
    {
      "bufferView": 114,
      "componentType": 5126,
      "count": 36,
      "type": "VEC3",
      "min": [
        0.25,
        1.3600000000000003,
        -0.5521690426072245
      ],
      "max": [
        0.95,
        3.7,
        -0.4
      ]
    },
    {
      "bufferView": 115,
      "componentType": 5126,
      "count": 36,
      "type": "VEC3"
    },
    {
      "bufferView": 116,
      "componentType": 5126,
      "count": 36,
      "type": "VEC2",
      "min": [
        0.0,
        0.0
      ],
      "max": [
        1.0,
        1.0
      ]
    },
    {
      "bufferView": 117,
      "componentType": 5121,
      "count": 36,
      "type": "VEC4"
    },
    {
      "bufferView": 118,
      "componentType": 5126,
      "count": 36,
      "type": "VEC4"
    },
    {
      "bufferView": 119,
      "componentType": 5123,
      "count": 150,
      "type": "SCALAR",
      "min": [
        0
      ],
      "max": [
        35
      ]
    },
    {
      "bufferView": 120,
      "componentType": 5126,
      "count": 40,
      "type": "VEC3",
      "min": [
        1.066355560174833,
        0.47484882252439975,
        0.12500243260576424
      ],
      "max": [
        1.8372898095117396,
        2.5656428743894453,
        0.23499756739423575
      ]
    },
    {
      "bufferView": 121,
      "componentType": 5126,
      "count": 40,
      "type": "VEC3"
    },
    {
      "bufferView": 122,
      "componentType": 5126,
      "count": 40,
      "type": "VEC2",
      "min": [
        0.0,
        0.0
      ],
      "max": [
        1.0,
        1.0
      ]
    },
    {
      "bufferView": 123,
      "componentType": 5121,
      "count": 40,
      "type": "VEC4"
    },
    {
      "bufferView": 124,
      "componentType": 5126,
      "count": 40,
      "type": "VEC4"
    },
    {
      "bufferView": 125,
      "componentType": 5123,
      "count": 60,
      "type": "SCALAR",
      "min": [
        0
      ],
      "max": [
        39
      ]
    },
    {
      "bufferView": 126,
      "componentType": 5126,
      "count": 80,
      "type": "VEC3",
      "min": [
        0.9336106659406478,
        2.345345834563555,
        0.09785541980829494
      ],
      "max": [
        1.3370970276581624,
        3.2702480072004896,
        1.139153538467994
      ]
    },
    {
      "bufferView": 127,
      "componentType": 5126,
      "count": 80,
      "type": "VEC3"
    },
    {
      "bufferView": 128,
      "componentType": 5126,
      "count": 80,
      "type": "VEC2",
      "min": [
        0.0,
        0.0
      ],
      "max": [
        1.0,
        1.0
      ]
    },
    {
      "bufferView": 129,
      "componentType": 5121,
      "count": 80,
      "type": "VEC4"
    },
    {
      "bufferView": 130,
      "componentType": 5126,
      "count": 80,
      "type": "VEC4"
    },
    {
      "bufferView": 131,
      "componentType": 5123,
      "count": 120,
      "type": "SCALAR",
      "min": [
        0
      ],
      "max": [
        79
      ]
    },
    {
      "bufferView": 132,
      "componentType": 5126,
      "count": 24,
      "type": "VEC3",
      "min": [
        1.4975,
        0.9400000000000001,
        0.23249999999999998
      ],
      "max": [
        1.5425,
        2.1,
        0.2575
      ]
    },
    {
      "bufferView": 133,
      "componentType": 5126,
      "count": 24,
      "type": "VEC3"
    },
    {
      "bufferView": 134,
      "componentType": 5126,
      "count": 24,
      "type": "VEC2",
      "min": [
        0.0,
        0.0
      ],
      "max": [
        1.0,
        1.0
      ]
    },
    {
      "bufferView": 135,
      "componentType": 5121,
      "count": 24,
      "type": "VEC4"
    },
    {
      "bufferView": 136,
      "componentType": 5126,
      "count": 24,
      "type": "VEC4"
    },
    {
      "bufferView": 137,
      "componentType": 5123,
      "count": 36,
      "type": "SCALAR",
      "min": [
        0
      ],
      "max": [
        23
      ]
    },
    {
      "bufferView": 138,
      "componentType": 5126,
      "count": 18,
      "type": "MAT4"
    },
    {
      "bufferView": 139,
      "componentType": 5126,
      "count": 3,
      "type": "SCALAR",
      "min": [
        0.0
      ],
      "max": [
        2.0
      ]
    },
    {
      "bufferView": 140,
      "componentType": 5126,
      "count": 3,
      "type": "VEC4"
    },
    {
      "bufferView": 141,
      "componentType": 5126,
      "count": 3,
      "type": "VEC4"
    },
    {
      "bufferView": 142,
      "componentType": 5126,
      "count": 3,
      "type": "VEC4"
    }
  ]
}
